<svg xmlns="http://www.w3.org/2000/svg" xmlns:xlink="http://www.w3.org/1999/xlink" xmlns:serif="http://www.serif.com/" width="100%" height="100%" viewBox="0 0 136 27" xml:space="preserve" style="fill-rule:evenodd;clip-rule:evenodd;stroke-linejoin:round;stroke-miterlimit:2;"><rect id="leverest_logo" x="0" y="0" width="135.317" height="26.267" style="fill:none;"></rect><clipPath id="_clip1"><rect x="0" y="0" width="135.317" height="26.267"></rect></clipPath><g clip-path="url(#_clip1)"><g id="logo"><path id="vertical" d="M15.587,0.001l-5.619,8.616l-9.956,17.244l9.956,-0l2.489,-4.311l2.489,-4.314l4.978,-8.622l4.977,-8.618l-9.314,0.005Z" style="fill:#ffffff;fill-rule:nonzero;"></path><path id="horizontal" d="M19.926,25.86l-2.489,-4.311l-2.489,-4.309l19.911,-0l4.978,8.621l-19.911,-0.001Z" style="fill:#ffffff;fill-rule:nonzero;"></path></g><g id="text"><path id="text1" serif:id="text" d="M60.846,26.009l-8.917,-0l0,-16.105l2.673,0l0,13.848l6.244,-0l0,2.257Z" style="fill:#ffffff;fill-rule:nonzero;"></path><path d="M72.616,20.966l-7.839,0c0.03,1.064 0.357,1.883 0.983,2.46c0.625,0.576 1.484,0.865 2.577,0.865c1.228,-0 2.355,-0.367 3.38,-1.101l0,2.1c-1.048,0.659 -2.433,0.988 -4.155,0.988c-1.692,0 -3.019,-0.522 -3.981,-1.566c-0.962,-1.045 -1.443,-2.514 -1.443,-4.408c-0,-1.79 0.53,-3.248 1.589,-4.374c1.059,-1.127 2.375,-1.691 3.947,-1.691c1.573,0 2.789,0.506 3.65,1.516c0.861,1.011 1.292,2.415 1.292,4.212l-0,0.999Zm-2.516,-1.841c-0.007,-0.936 -0.228,-1.664 -0.662,-2.185c-0.435,-0.52 -1.034,-0.78 -1.797,-0.78c-0.749,-0 -1.383,0.273 -1.904,0.82c-0.52,0.546 -0.84,1.261 -0.96,2.145l5.323,-0Z" style="fill:#ffffff;fill-rule:nonzero;"></path><path d="M85.003,14.509l-4.447,11.5l-2.819,-0l-4.234,-11.5l2.83,-0l2.549,8.041c0.195,0.591 0.315,1.108 0.36,1.55l0.034,-0c0.067,-0.554 0.172,-1.056 0.314,-1.505l2.673,-8.086l2.74,-0Z" style="fill:#ffffff;fill-rule:nonzero;"></path><path d="M96.323,20.966l-7.838,0c0.029,1.064 0.357,1.883 0.982,2.46c0.625,0.576 1.484,0.865 2.578,0.865c1.227,-0 2.354,-0.367 3.38,-1.101l-0,2.1c-1.048,0.659 -2.433,0.988 -4.155,0.988c-1.692,0 -3.019,-0.522 -3.982,-1.566c-0.962,-1.045 -1.443,-2.514 -1.443,-4.408c0,-1.79 0.53,-3.248 1.589,-4.374c1.06,-1.127 2.376,-1.691 3.948,-1.691c1.572,0 2.789,0.506 3.65,1.516c0.861,1.011 1.291,2.415 1.291,4.212l0,0.999Zm-2.515,-1.841c-0.008,-0.936 -0.229,-1.664 -0.663,-2.185c-0.434,-0.52 -1.033,-0.78 -1.797,-0.78c-0.748,-0 -1.383,0.273 -1.903,0.82c-0.521,0.546 -0.841,1.261 -0.96,2.145l5.323,-0Z" style="fill:#ffffff;fill-rule:nonzero;"></path><path d="M105.476,16.991c-0.314,-0.247 -0.767,-0.371 -1.359,-0.371c-0.771,0 -1.415,0.348 -1.931,1.045c-0.517,0.696 -0.775,1.643 -0.775,2.841l-0,5.503l-2.606,-0l0,-11.5l2.606,-0l-0,2.369l0.045,0c0.254,-0.808 0.645,-1.439 1.173,-1.892c0.528,-0.453 1.118,-0.679 1.769,-0.679c0.472,-0 0.831,0.071 1.078,0.213l0,2.471Z" style="fill:#ffffff;fill-rule:nonzero;"></path><path d="M116.853,20.966l-7.839,0c0.03,1.064 0.357,1.883 0.982,2.46c0.626,0.576 1.485,0.865 2.578,0.865c1.228,-0 2.355,-0.367 3.38,-1.101l0,2.1c-1.048,0.659 -2.433,0.988 -4.155,0.988c-1.692,0 -3.019,-0.522 -3.981,-1.566c-0.962,-1.045 -1.443,-2.514 -1.443,-4.408c-0,-1.79 0.529,-3.248 1.589,-4.374c1.059,-1.127 2.375,-1.691 3.947,-1.691c1.573,0 2.789,0.506 3.65,1.516c0.861,1.011 1.292,2.415 1.292,4.212l-0,0.999Zm-2.516,-1.841c-0.007,-0.936 -0.228,-1.664 -0.663,-2.185c-0.434,-0.52 -1.033,-0.78 -1.796,-0.78c-0.749,-0 -1.384,0.273 -1.904,0.82c-0.52,0.546 -0.84,1.261 -0.96,2.145l5.323,-0Z" style="fill:#ffffff;fill-rule:nonzero;"></path><path d="M118.616,25.649l-0,-2.414c0.973,0.741 2.048,1.112 3.223,1.112c1.572,-0 2.358,-0.464 2.358,-1.393c0,-0.262 -0.067,-0.485 -0.202,-0.668c-0.135,-0.183 -0.316,-0.346 -0.544,-0.489c-0.229,-0.142 -0.498,-0.269 -0.809,-0.381c-0.311,-0.113 -0.657,-0.24 -1.039,-0.382c-0.472,-0.187 -0.896,-0.386 -1.274,-0.595c-0.379,-0.21 -0.693,-0.448 -0.944,-0.714c-0.251,-0.265 -0.44,-0.567 -0.567,-0.904c-0.127,-0.337 -0.191,-0.73 -0.191,-1.179c0,-0.554 0.131,-1.042 0.393,-1.465c0.262,-0.423 0.614,-0.779 1.056,-1.067c0.442,-0.289 0.943,-0.506 1.505,-0.652c0.561,-0.146 1.141,-0.219 1.74,-0.219c1.064,0 2.014,0.161 2.853,0.483l-0,2.28c-0.809,-0.554 -1.737,-0.831 -2.785,-0.831c-0.33,-0 -0.627,0.034 -0.893,0.101c-0.266,0.067 -0.492,0.161 -0.679,0.281c-0.188,0.12 -0.334,0.264 -0.438,0.432c-0.105,0.169 -0.158,0.354 -0.158,0.556c0,0.247 0.053,0.457 0.158,0.629c0.104,0.172 0.26,0.324 0.466,0.455c0.206,0.131 0.453,0.251 0.741,0.359c0.288,0.109 0.619,0.227 0.994,0.354c0.494,0.202 0.937,0.408 1.331,0.618c0.393,0.209 0.728,0.447 1.005,0.713c0.277,0.266 0.49,0.573 0.64,0.921c0.15,0.348 0.224,0.761 0.224,1.241c0,0.584 -0.134,1.093 -0.404,1.527c-0.269,0.434 -0.629,0.794 -1.078,1.078c-0.449,0.285 -0.968,0.496 -1.555,0.635c-0.588,0.138 -1.208,0.207 -1.859,0.207c-1.258,0 -2.347,-0.209 -3.268,-0.629Z" style="fill:#ffffff;fill-rule:nonzero;"></path><path d="M135.316,25.885c-0.51,0.255 -1.18,0.382 -2.011,0.382c-2.231,0 -3.346,-1.07 -3.346,-3.212l-0,-6.502l-1.921,-0l0,-2.044l1.921,-0l-0,-2.662l2.605,-0.741l0,3.403l2.752,-0l-0,2.044l-2.752,-0l0,5.75c0,0.681 0.124,1.168 0.371,1.46c0.247,0.292 0.659,0.438 1.235,0.438c0.442,-0 0.824,-0.128 1.146,-0.382l-0,2.066Z" style="fill:#ffffff;fill-rule:nonzero;"></path></g></g></svg>
